<svg width="164" height="50" fill="none" version="1.1" viewBox="0 0 164 50" xmlns="http://www.w3.org/2000/svg">
 <rect width="50" height="50" rx="0" fill="#ff0"/>
 <g>
  <g fill="#000" aria-label="Kk">
   <path d="m7.9605 9.5259q0.039063-0.46875 0.23438-0.85938 0.19531-0.39062 0.46875-0.58594 0.3125-0.23438 0.625-0.19531 0.3125 0 0.625 0.35156 0.15625 0 0.23437 0.3125 0.11719 0.27344 0.15625 1.0547 0.03906 0.74219 0.03906 2.0703 0.03906 1.3281 0.03906 3.3984 0 2.0703 0 5 0.03906 2.8906 0.07813 6.7969 0.15625-0.27344 0.82031-1.3672 0.70312-1.1328 1.7578-2.7344 1.0547-1.6406 2.3438-3.5156 1.3281-1.9141 2.6953-3.7891 1.4062-1.875 2.7734-3.5156 1.4062-1.6406 2.5781-2.6562 1.1719-1.0547 2.0703-1.3281 0.9375-0.3125 1.3672 0.50781-3.3984 4.375-6.0156 7.6172-2.6172 3.2422-4.5312 5.8594-1.875 2.5781-3.1641 4.7656-1.25 2.1875-1.9922 4.4531l16.367 7.8906q-0.07813 0.66406-0.46875 1.25-0.35156 0.58594-1.2109 0.50781l-15.195-7.0703q0.11719 0.625 0.07813 1.5234 0 0.85938-0.07813 1.7969-0.03906 0.9375-0.15625 1.7969-0.11719 0.85938-0.15625 1.4062 0.07813 0.82031-0.58594 1.0938-0.625 0.27344-1.25-0.27344z" style=""/>
   <path d="m28.625 8.5102q0.89844-0.89844 1.4062-0.74219 0.54688 0.15625 0.82031 1.0547l0.07813 21.758 10.117-13.672q0.66406 0 1.0938 0.23438 0.46875 0.19531 0.46875 0.97656l-10.312 14.219 11.484 5.7031q0.11719 0.15625 0.27344 0.54688 0.19531 0.35156 0.19531 0.74219 0 0.35156-0.27344 0.70312-0.27344 0.3125-1.0156 0.35156l-11.797-6.1719v6.3672q-0.27344 0.66406-0.58594 0.85938-0.3125 0.19531-0.625 0.11719-0.3125-0.03906-0.625-0.27344-0.27344-0.23438-0.50781-0.42969z" style=""/>
  </g>
  <text x="11.838028" y="20.260563" fill="#000000" font-family="sans-serif" font-size="40px" letter-spacing="0px" word-spacing="0px" style="line-height:1.25" xml:space="preserve"><tspan x="11.838028" y="56.753777"/></text>
  <g fill="#f5ff00" stroke="#000" stroke-width=".78802" aria-label="Kawankos">
   <path d="m55.586 16.044q0.06156-0.3386 0.3386-0.58486 0.30782-0.24626 0.64643-0.24626 0.18469 0 0.3386 0.15391 0.18469 0.12313 0.30782 0.3386 0.12313 0.18469 0.21548 0.40017 0.09235 0.18469 0.09235 0.3386l1.2005 10.62q0.18469-0.18469 0.76956-1.1697 0.61564-1.0158 1.416-2.3394 0.83112-1.3544 1.7546-2.8012 0.95425-1.4468 1.8469-2.4934 0.89268-1.0774 1.6007-1.5083 0.70799-0.46173 1.1082 0.15391-1.3852 2.2163-2.4318 3.7554-1.0466 1.5083-1.8469 2.6165-0.76956 1.0774-1.3236 1.8777-0.5233 0.76956-0.92347 1.5083-0.40017 0.70799-0.67721 1.5083-0.27704 0.76956-0.5233 1.8469 0 0.12313 0.06157 0.21548 0.09235 0.06156 0.43095 0.18469 0.36939 0.09235 1.1082 0.15391 0.73877 0.06156 2.0316 0.12313 1.2929 0.06156 3.2629 0.09235 1.9701 0.03078 4.8328 0.03078 0 0.46173-0.24626 0.92347-0.21548 0.43095-0.83112 0.43095h-11.02q0.24626 0.8619 0.3386 1.7238 0.12313 0.83112 0.12313 1.6622 0 0.55408-0.21548 0.58486-0.18469 0-0.8619 0 0 0-0.09235 0-0.06156-0.03078-0.09235-0.03078-0.06156-0.21548-0.18469-0.76956-0.12313-0.55408-0.24626-1.1697-0.12313-0.61564-0.24626-1.1697-0.09235-0.58486-0.12313-0.83112-0.03078-0.30782-0.12313-1.3236-0.09235-1.0158-0.21548-2.3394-0.12313-1.3236-0.24626-2.832t-0.24626-2.832q-0.12313-1.3544-0.21548-2.3394l-0.12313-1.3236q0-0.09235-0.06157-0.3386-0.03078-0.27704-0.12313-0.58486-0.06156-0.30782-0.12313-0.61564-0.03078-0.30782-0.06156-0.43095 0-0.03078-0.09235-0.21548-0.06156-0.18469-0.12313-0.36939-0.06156-0.18469-0.12313-0.3386-0.06156-0.18469-0.06156-0.24626z"/>
   <path d="m80.889 35.714q-0.15391-0.80034-0.27704-1.9085-0.09235-1.1389-0.21548-2.2779-0.12313-1.1697-0.30782-2.1855-0.15391-1.0158-0.49252-1.6622-1.5699 3.2014-2.7704 5.0483-1.2005 1.8162-2.124 2.6165-0.89268 0.76956-1.5083 0.73877-0.61564-0.03078-1.0158-0.55408-0.40017-0.5233-0.58486-1.3236-0.15391-0.83112-0.21548-1.5391 0-0.67721 0.30782-1.9085 0.30782-1.2313 0.83112-2.6781 0.5233-1.4775 1.2313-2.9859 0.73877-1.5083 1.5699-2.7396t1.7238-2.0316q0.89268-0.80034 1.7854-0.80034 1.3236-0.21548 1.9393 0.58486 0.64643 0.76956 0.24626 2.6165 0 2.0316 0.15391 3.4784 0.18469 1.4468 0.36939 2.7704 0.21548 1.3236 0.36939 2.7704 0.18469 1.4468 0.18469 3.4784 0 0.36939-0.09235 0.64643-0.06156 0.24626-0.73877 0.24626-0.09235 0-0.24626-0.15391-0.12313-0.15391-0.12313-0.24626zm-1.6622-13.76q-0.3386-0.49252-0.92347-0.09235-0.58486 0.40017-1.2313 1.3236-0.64643 0.92347-1.3236 2.2163-0.67721 1.2929-1.2621 2.6165-0.58486 1.3236-1.0158 2.5241-0.43095 1.1697-0.58486 1.9393 0 1.1082 0.3386 1.2621 0.3386 0.12313 0.83112-0.36939 0.49252-0.49252 1.1082-1.416 0.64643-0.92347 1.2313-1.9701 0.61564-1.0466 1.1389-2.0316 0.55408-0.98503 0.8619-1.6007 0.27704-0.64643 0.43095-1.2005t0.24626-1.0466q0.12313-0.5233 0.12313-1.0466 0.03078-0.5233 0.03078-1.1082z"/>
   <path d="m88.954 35.714q-0.15391-0.46173-0.5233-1.4468-0.36939-0.98503-0.83112-2.2163-0.46173-1.2313-0.98503-2.6165-0.5233-1.3852-0.98503-2.6165-0.46173-1.2313-0.83112-2.2163-0.36939-0.98503-0.55408-1.4775-0.18469-0.27704-0.3386-0.61564-0.12313-0.36939-0.12313-0.70799 0-0.36939 0.15391-0.64643t0.49252-0.40017q0.3386 0 0.58486 0.24626 0.27704 0.21548 0.40017 0.5233l3.54 9.0808q0.03078-0.43095 0.15391-1.5391 0.12313-1.1389 0.24626-2.401t0.21548-2.3702q0.12313-1.1389 0.18469-1.5699 0.03078-0.30782 0.06157-0.70799 0.03078-0.40017 0.12313-0.76956 0.12313-0.36939 0.3386-0.64643 0.24626-0.27704 0.67721-0.27704 0.30782 0 0.43095 0.06156 0.15391 0.06156 0.3386 0.36939l5.9102 10.097v-10.404q0.89268 0 1.2313 0.46173 0.36939 0.43095 0.43095 1.0774 0.09235 0.64643 0 1.3852t-0.06156 1.3236q0 0.21548 0.03078 0.92347t0.06156 1.6315q0.06157 0.92347 0.09235 2.0008 0.03078 1.0466 0.06157 1.9701 0.06156 0.92347 0.09235 1.6315 0.03078 0.70799 0.03078 0.92347 0.21548 0.61564-0.03078 0.83112-0.21548 0.18469-0.61564 0.12313-0.40017-0.06156-0.80034-0.3386-0.40017-0.27704-0.5233-0.61564l-6.2796-10.651q-0.21548 4.6481-0.43095 7.7571-0.21548 3.109-0.40017 5.233-0.09235 0.3386-0.30782 0.36939-0.21548 0.03078-0.46173-0.06156-0.21548-0.12313-0.43095-0.3386-0.21548-0.21548-0.36939-0.36939z"/>
   <path d="m110.32 35.714q-0.15391-0.80034-0.27704-1.9085-0.0923-1.1389-0.21547-2.2779-0.12313-1.1697-0.30783-2.1855-0.15391-1.0158-0.49251-1.6622-1.5699 3.2014-2.7704 5.0483-1.2005 1.8162-2.124 2.6165-0.89269 0.76956-1.5083 0.73877-0.61565-0.03078-1.0158-0.55408-0.40017-0.5233-0.58486-1.3236-0.15391-0.83112-0.21547-1.5391 0-0.67721 0.30782-1.9085 0.30782-1.2313 0.83112-2.6781 0.5233-1.4775 1.2313-2.9859 0.73877-1.5083 1.5699-2.7396t1.7238-2.0316q0.89269-0.80034 1.7854-0.80034 1.3236-0.21548 1.9393 0.58486 0.64643 0.76956 0.24626 2.6165 0 2.0316 0.15391 3.4784 0.1847 1.4468 0.36939 2.7704 0.21547 1.3236 0.36939 2.7704 0.18469 1.4468 0.18469 3.4784 0 0.36939-0.0923 0.64643-0.0616 0.24626-0.73877 0.24626-0.0923 0-0.24626-0.15391-0.12313-0.15391-0.12313-0.24626zm-1.6622-13.76q-0.3386-0.49252-0.92346-0.09235-0.58487 0.40017-1.2313 1.3236-0.64643 0.92347-1.3236 2.2163-0.67721 1.2929-1.2621 2.6165-0.58486 1.3236-1.0158 2.5241-0.43095 1.1697-0.58487 1.9393 0 1.1082 0.33861 1.2621 0.3386 0.12313 0.83112-0.36939 0.49251-0.49252 1.1082-1.416 0.64643-0.92347 1.2313-1.9701 0.61564-1.0466 1.1389-2.0316 0.55408-0.98503 0.8619-1.6007 0.27704-0.64643 0.43095-1.2005t0.24626-1.0466q0.12313-0.5233 0.12313-1.0466 0.0308-0.5233 0.0308-1.1082z"/>
   <path d="m114.44 36.114q-0.3386-4.1556-0.61564-8.3112-0.24626-4.1864-0.55408-8.6806 0-0.73877 0.80034-0.73877h0.24625q0.0924 0 0.21548 0.24626 0.12313 0.24626 0.24626 0.92347 0.15391 0.64643 0.30782 2.0008 0.18469 1.3236 0.43095 3.4784t0.55408 5.3869q0.64643-2.0932 1.0158-4.0633 0.36939-1.9701 0.95425-3.5707 0.58487-1.6315 1.6315-2.8627 1.0774-1.2313 3.0782-1.8162 1.1082 0.18469 1.7854 1.3544 0.67721 1.1389 1.0774 2.832t0.55408 3.6939q0.15391 1.9701 0.18469 3.7862 0.0308 1.8162 0.0308 3.2629 0 1.416 0.0616 2.0316-0.0923 0.24626-0.27704 0.43095-0.18469 0.18469-0.43095 0.27704-0.21548 0.06156-0.43095 0.03078-0.21548-0.06156-0.40017-0.3386 0-0.3386-0.0616-1.3852-0.0616-1.0466-0.15392-2.4318-0.0923-1.416-0.21547-2.9859-0.0923-1.6007-0.18469-2.9859-0.0616-1.416-0.12313-2.4626-0.0616-1.0466-0.0924-1.3852-0.64643-1.1389-1.2928-1.2929-0.61565-0.15391-1.2621 0.40017-0.61564 0.55408-1.2005 1.693-0.58486 1.1389-1.1082 2.5857-0.5233 1.416-0.98503 2.9859-0.46174 1.5699-0.80034 3.0474-0.33861 1.4468-0.58486 2.6473-0.21548 1.1697-0.27704 1.8162-0.0923 0.21548-0.40017 0.43095-0.27704 0.18469-0.61565 0.27704-0.30782 0.09235-0.64642 0.06156-0.30783-0.06156-0.46174-0.36939z"/>
   <path d="m129.31 12.874q0.64642-0.61564 1.0158-0.49252 0.40017 0.12313 0.58486 0.83112 0.1847 0.70799 0.21548 1.8469 0.0308 1.1389-0.0308 2.5857-0.0308 1.416-0.15391 3.0167-0.12313 1.5699-0.21548 3.109-0.0924 1.5083-0.12313 2.8935-0.0308 1.3852 0.0924 2.401h0.0923q0.0616 0 0.0923-0.03078 1.6007-1.6007 2.8628-3.386 1.2621-1.7854 2.2779-3.3553 1.0158-1.6007 1.7854-2.7704 0.80034-1.1697 1.4776-1.6007 0.46173 0 0.76955 0.15391 0.33861 0.15391 0.33861 0.70799 0 0.06156-0.0308 0.21548 0 0.12313 0 0.18469-0.76956 1.5699-1.693 3.1706-0.92346 1.5699-2.0008 3.0474-1.0774 1.4775-2.3394 2.8012-1.2313 1.3236-2.678 2.401 0 0.03078-0.0308 0.12313 0 0.06156 0 0.09235 0 0.30782 0.49252 0.67721 0.5233 0.36939 1.2928 0.70799 0.80034 0.3386 1.7546 0.67721 0.98503 0.3386 1.9085 0.58486 0.95425 0.24626 1.7546 0.40017 0.83112 0.15391 1.2929 0.15391 0 0.12313 0 0.46173 0.0308 0.3386-0.0308 0.70799-0.0616 0.36939-0.21548 0.67721-0.15391 0.27704-0.49252 0.27704h-0.12312q-0.0616 0-0.0924-0.03078l-8.8037-3.54q-0.0308 1.8162-0.24625 2.9551-0.21548 1.1082-0.5233 1.6315-0.27704 0.55408-0.61565 0.5233-0.30782-0.03078-0.55408-0.49252z"/>
   <path d="m141.93 32.297q-0.21547-1.416-0.21547-2.7396 0-1.3544 0.15391-2.7396 0.18469-1.3852 0.49252-2.8627 0.3386-1.5083 0.76955-3.2321 0-0.3386 0.18469-0.61564 0.1847-0.30782 0.49252-0.49252 0.30782-0.21548 0.64643-0.3386 0.3386-0.12313 0.64642-0.12313 0.67721 0 1.2313 0.43095 0.55408 0.43095 0.98503 1.0466 0.46174 0.61564 0.76956 1.3236 0.3386 0.67721 0.55408 1.1697 0.24626 1.0774 0.3386 2.4626 0.12313 1.3544 0.0308 2.7704-0.0923 1.416-0.43096 2.8012-0.3386 1.3544-0.95424 2.4934-0.61565 1.1389-1.6007 1.9085-0.95425 0.76956-2.2779 0.95425-0.708 0-1.0774-0.46173-0.36939-0.49252-0.55408-1.1697-0.15391-0.70799-0.1847-1.416 0-0.70799 0-1.1697zm1.5699-0.09235q0 0.30782 0 0.58486 0.0308 0.27704 0.0616 0.55408 0.0616 0.24626 0.12313 0.55408 0.0924 0.27704 0.21548 0.64643h0.18469q0.73877 0 1.2621-0.49252 0.5233-0.49252 0.89269-1.2621 0.36938-0.80034 0.61564-1.7546 0.24626-0.98503 0.36939-1.9085 0.15391-0.95425 0.18469-1.7546 0.0616-0.83112 0.0616-1.3236v-0.61564q0-0.40017-0.0308-0.89268-0.0308-0.5233-0.12313-1.0466-0.0616-0.55408-0.21547-0.98503-0.15391-0.46173-0.40017-0.73877t-0.64643-0.27704q-0.67721-0.21548-1.1697 0.09235-0.46174 0.30782-0.76956 1.0466-0.27704 0.70799-0.43095 1.7546-0.15391 1.0466-0.18469 2.3087-0.0308 1.2621-0.0308 2.6781 0.0308 1.416 0.0308 2.832z"/>
   <path d="m152.83 36.053q0 0.03078 0.64642-0.36939 0.67721-0.40017 1.5699-1.0466 0.92346-0.67721 1.8777-1.4468 0.95425-0.80034 1.5699-1.5083 0.61564-0.70799 0.64642-1.2005 0.0616-0.5233-0.83112-0.67721-1.1082-0.15391-1.8777 0.03078-0.73878 0.18469-1.3544 0.43095-0.61565 0.24626-1.1697 0.46173-0.52329 0.21548-1.1697 0.15391-1.3544 0-1.8777-0.83112-0.49251-0.8619-0.49251-2.3087 0-1.4468 0.64643-2.7396 0.64642-1.3236 1.6622-2.2779 1.0158-0.95425 2.3394-1.5083 1.3236-0.58486 2.7088-0.58486 0.55408 0 0.95425 0.09235t0.40017 0.70799q0 0.43095-0.36939 0.83112-0.36939 0.36939-0.83112 0.36939-0.0308 0-0.15391-0.03078-0.12313-0.06156-0.24626-0.15391-0.12313-0.09235-0.24626-0.12313-0.12312-0.06156-0.15391-0.06156-0.98503-0.27704-1.9085 0.27704-0.92347 0.55408-1.6622 1.5083-0.708 0.92347-1.139 2.0316-0.43095 1.0774-0.43095 1.9393 0 0.3386 0.12313 0.55408 0.15391 0.18469 0.36939 0.27704 0.24626 0.09235 0.5233 0.12313 0.30782 0 0.61564 0 0.61564 0 1.2313-0.18469 0.64643-0.18469 1.2313-0.43095 0.61564-0.24626 1.2313-0.43095 0.64642-0.18469 1.3236-0.18469 0.30782 0 0.67721 0.18469 0.36939 0.15391 0.67721 0.49252 0.30782 0.30782 0.5233 0.73877 0.21547 0.40017 0.24626 0.89268 0.18469 0.43095-0.12313 1.1389-0.27704 0.70799-0.86191 1.5083-0.58486 0.80034-1.416 1.6315-0.83112 0.80034-1.6622 1.4775-0.83112 0.64643-1.6315 1.0466-0.80033 0.43095-1.3544 0.40017-0.61565 0-0.73878-0.36939-0.0923-0.36939-0.0923-0.83112z"/>
  </g>
 </g>
</svg>
