<?xml version="1.0" encoding="UTF-8" standalone="no"?>
<svg
   xmlns:dc="http://purl.org/dc/elements/1.1/"
   xmlns:cc="http://creativecommons.org/ns#"
   xmlns:rdf="http://www.w3.org/1999/02/22-rdf-syntax-ns#"
   xmlns:svg="http://www.w3.org/2000/svg"
   xmlns="http://www.w3.org/2000/svg"
   id="svg8"
   version="1.1"
   fill="none"
   viewBox="0 0 164 50"
   height="50"
   width="164">
  <metadata
     id="metadata14">
    <rdf:RDF>
      <cc:Work
         rdf:about="">
        <dc:format>image/svg+xml</dc:format>
        <dc:type
           rdf:resource="http://purl.org/dc/dcmitype/StillImage" />
        <dc:title></dc:title>
      </cc:Work>
    </rdf:RDF>
  </metadata>
  <defs
     id="defs12" />
  <rect
     y="0"
     x="0"
     style="fill:#ffff00"
     id="rect4"
     rx="0"
     height="50"
     width="50" />
  <g
     id="text13"
     style="font-style:normal;font-variant:normal;font-weight:normal;font-stretch:normal;font-size:40px;line-height:1.25;font-family:'Shadows Into Light Two';-inkscape-font-specification:'Shadows Into Light Two';letter-spacing:0px;word-spacing:0px;fill:#000000;fill-opacity:1;stroke:none"
     aria-label="Kk">
    <path
       id="path30"
       style=""
       d="m 7.9604983,9.525856 q 0.039063,-0.46875 0.234375,-0.859375 0.1953125,-0.390625 0.46875,-0.5859375 0.3125,-0.234375 0.625,-0.1953125 0.3125,0 0.625,0.3515625 0.1562497,0 0.2343747,0.3125 0.117188,0.2734375 0.15625,1.0546875 0.03906,0.742188 0.03906,2.070313 0.03906,1.328125 0.03906,3.398437 0,2.070313 0,5 0.03906,2.890625 0.07813,6.796875 0.15625,-0.273437 0.820313,-1.367187 0.703125,-1.132813 1.757812,-2.734375 1.054688,-1.640625 2.34375,-3.515625 1.328125,-1.914063 2.695313,-3.789063 1.40625,-1.875 2.773437,-3.515625 1.40625,-1.640625 2.578125,-2.65625 1.171875,-1.0546875 2.070313,-1.328125 0.9375,-0.3125 1.367187,0.5078125 -3.398437,4.3750005 -6.015625,7.6171875 -2.617187,3.242188 -4.53125,5.859375 -1.875,2.578125 -3.164062,4.765625 -1.25,2.1875 -1.992188,4.453125 l 16.367188,7.890625 q -0.07813,0.664063 -0.46875,1.25 -0.351563,0.585938 -1.210938,0.507813 L 10.655811,33.744606 q 0.117187,0.625 0.07813,1.523438 0,0.859375 -0.07813,1.796875 -0.03906,0.9375 -0.15625,1.796875 -0.117188,0.859375 -0.15625,1.40625 0.07813,0.820312 -0.5859377,1.09375 -0.625,0.273437 -1.25,-0.273438 z" />
    <path
       id="path32"
       style=""
       d="m 28.624561,8.510231 q 0.898437,-0.8984375 1.40625,-0.7421875 0.546875,0.15625 0.820312,1.0546875 l 0.07813,21.757813 10.117188,-13.671875 q 0.664062,0 1.09375,0.234375 0.46875,0.195312 0.46875,0.976562 l -10.3125,14.21875 11.484375,5.703125 q 0.117187,0.15625 0.273437,0.546875 0.195313,0.351563 0.195313,0.742188 0,0.351562 -0.273438,0.703125 -0.273437,0.3125 -1.015625,0.351562 L 31.163623,34.213356 v 6.367188 q -0.273437,0.664062 -0.585937,0.859375 -0.3125,0.195312 -0.625,0.117187 -0.3125,-0.03906 -0.625,-0.273437 -0.273438,-0.234375 -0.507813,-0.429688 z" />
  </g>
  <text
     id="text4526"
     y="20.260563"
     x="11.838028"
     style="font-style:normal;font-weight:normal;font-size:40px;line-height:1.25;font-family:sans-serif;letter-spacing:0px;word-spacing:0px;fill:#000000;fill-opacity:1;stroke:none"
     xml:space="preserve"><tspan
       y="56.753777"
       x="11.838028"
       id="tspan4524" /></text>
  <g
     id="text17"
     style="font-style:normal;font-weight:normal;font-size:31.52099609px;line-height:1.25;font-family:sans-serif;letter-spacing:0px;word-spacing:0px;fill:#f5ff00;fill-opacity:1;stroke:#000000;stroke-width:0.7880249;stroke-opacity:1"
     aria-label="Kawankos">
    <path
       id="path13"
       style="font-style:normal;font-variant:normal;font-weight:normal;font-stretch:normal;font-family:'Shadows Into Light';-inkscape-font-specification:'Shadows Into Light, ';fill:#f5ff00;fill-opacity:1;stroke:#000000;stroke-width:0.7880249;stroke-opacity:1"
       d="m 55.586051,16.044375 q 0.06156,-0.338605 0.338604,-0.584862 0.307823,-0.246258 0.646427,-0.246258 0.184693,0 0.338605,0.153911 0.184693,0.123129 0.307822,0.338604 0.123129,0.184694 0.215475,0.400169 0.09235,0.184694 0.09235,0.338605 l 1.200507,10.619867 q 0.184693,-0.184694 0.769555,-1.169725 0.615645,-1.015813 1.415983,-2.339449 0.83112,-1.354418 1.754586,-2.801182 0.954249,-1.446764 1.846934,-2.49336 0.892684,-1.077378 1.600675,-1.508329 0.707991,-0.461733 1.10816,0.153911 -1.3852,2.21632 -2.431795,3.755431 -1.046596,1.508329 -1.846934,2.616489 -0.769555,1.077378 -1.323635,1.877716 -0.523298,0.769555 -0.923467,1.508329 -0.400169,0.707991 -0.677209,1.508329 -0.27704,0.769555 -0.523298,1.846933 0,0.123129 0.06157,0.215476 0.09235,0.06156 0.430951,0.184693 0.369387,0.09235 1.10816,0.153911 0.738773,0.06156 2.031627,0.123129 1.292853,0.06156 3.262915,0.09235 1.970062,0.03078 4.832809,0.03078 0,0.461733 -0.246258,0.923467 -0.215475,0.430951 -0.83112,0.430951 H 59.126007 q 0.246257,0.861902 0.338604,1.723804 0.123129,0.83112 0.123129,1.66224 0,0.55408 -0.215476,0.584862 -0.184693,0 -0.861902,0 0,0 -0.09235,0 -0.06156,-0.03078 -0.09235,-0.03078 -0.06156,-0.215475 -0.184694,-0.769555 -0.123128,-0.55408 -0.246257,-1.169725 -0.123129,-0.615644 -0.246258,-1.169724 -0.09235,-0.584863 -0.123129,-0.83112 -0.03078,-0.307823 -0.123129,-1.323636 -0.09235,-1.015813 -0.215475,-2.339449 -0.123129,-1.323635 -0.246258,-2.831964 -0.123129,-1.508329 -0.246258,-2.831965 -0.123129,-1.354418 -0.215476,-2.339449 l -0.123128,-1.323635 q 0,-0.09235 -0.06157,-0.338605 -0.03078,-0.27704 -0.123129,-0.584862 -0.06156,-0.307822 -0.123129,-0.615644 -0.03078,-0.307823 -0.06156,-0.430952 0,-0.03078 -0.09235,-0.215475 -0.06156,-0.184693 -0.123129,-0.369387 -0.06156,-0.184693 -0.123129,-0.338604 -0.06156,-0.184694 -0.06156,-0.246258 z" />
    <path
       id="path15"
       style="font-style:normal;font-variant:normal;font-weight:normal;font-stretch:normal;font-family:'Shadows Into Light';-inkscape-font-specification:'Shadows Into Light, ';fill:#f5ff00;fill-opacity:1;stroke:#000000;stroke-width:0.7880249;stroke-opacity:1"
       d="m 80.889039,35.714215 q -0.153911,-0.800338 -0.27704,-1.908498 -0.09235,-1.138942 -0.215476,-2.277884 -0.123128,-1.169724 -0.307822,-2.185538 -0.153911,-1.015813 -0.492515,-1.66224 -1.569894,3.201351 -2.7704,5.048285 -1.200507,1.816151 -2.123974,2.616489 -0.892684,0.769555 -1.508329,0.738773 -0.615644,-0.03078 -1.015813,-0.55408 -0.400169,-0.523298 -0.584862,-1.323636 -0.153911,-0.83112 -0.215476,-1.539111 0,-0.677209 0.307822,-1.908498 0.307823,-1.231288 0.83112,-2.678053 0.523298,-1.477547 1.231289,-2.985876 0.738774,-1.508328 1.569894,-2.739617 0.83112,-1.231289 1.723804,-2.031627 0.892685,-0.800338 1.785369,-0.800338 1.323636,-0.215475 1.93928,0.584862 0.646427,0.769556 0.246258,2.616489 0,2.031627 0.153911,3.478391 0.184693,1.446765 0.369387,2.7704 0.215475,1.323636 0.369386,2.770401 0.184694,1.446764 0.184694,3.478391 0,0.369386 -0.09235,0.646426 -0.06156,0.246258 -0.738773,0.246258 -0.09235,0 -0.246258,-0.153911 -0.123129,-0.153911 -0.123129,-0.246258 z m -1.66224,-13.759653 q -0.338604,-0.492516 -0.923467,-0.09235 -0.584862,0.400169 -1.231289,1.323636 -0.646426,0.923466 -1.323635,2.21632 -0.677209,1.292853 -1.262071,2.616489 -0.584863,1.323635 -1.015814,2.524142 -0.430951,1.169724 -0.584862,1.93928 0,1.10816 0.338605,1.262071 0.338604,0.123129 0.83112,-0.369387 0.492515,-0.492515 1.10816,-1.415982 0.646426,-0.923467 1.231289,-1.970062 0.615644,-1.046596 1.138942,-2.031627 0.55408,-0.985031 0.861902,-1.600675 0.27704,-0.646427 0.430951,-1.200507 0.153911,-0.55408 0.246258,-1.046596 0.123129,-0.523297 0.123129,-1.046595 0.03078,-0.523298 0.03078,-1.10816 z" />
    <path
       id="path17"
       style="font-style:normal;font-variant:normal;font-weight:normal;font-stretch:normal;font-family:'Shadows Into Light';-inkscape-font-specification:'Shadows Into Light, ';fill:#f5ff00;fill-opacity:1;stroke:#000000;stroke-width:0.7880249;stroke-opacity:1"
       d="m 88.953981,35.714215 q -0.153911,-0.461733 -0.523297,-1.446764 -0.369387,-0.985031 -0.83112,-2.21632 -0.461734,-1.231289 -0.985032,-2.616489 -0.523297,-1.3852 -0.985031,-2.616489 -0.461733,-1.231289 -0.83112,-2.21632 -0.369386,-0.985031 -0.55408,-1.477547 -0.184693,-0.27704 -0.338604,-0.615644 -0.123129,-0.369387 -0.123129,-0.707991 0,-0.369387 0.153911,-0.646427 0.153911,-0.27704 0.492516,-0.400169 0.338604,0 0.584862,0.246258 0.27704,0.215475 0.400169,0.523298 l 3.539955,9.080755 q 0.03078,-0.430951 0.153912,-1.539111 0.123128,-1.138942 0.246257,-2.401013 0.123129,-1.262071 0.215476,-2.370231 0.123129,-1.138943 0.184693,-1.569894 0.03078,-0.307822 0.06157,-0.707991 0.03078,-0.400169 0.123129,-0.769555 0.123128,-0.369387 0.338604,-0.646427 0.246258,-0.27704 0.677209,-0.27704 0.307822,0 0.430951,0.06156 0.153911,0.06156 0.338604,0.369387 l 5.910187,10.096569 V 20.446233 q 0.892685,0 1.231289,0.461733 0.369387,0.430951 0.430951,1.077378 0.09235,0.646427 0,1.3852 -0.09235,0.738773 -0.06156,1.323636 0,0.215475 0.03078,0.923466 0.03078,0.707991 0.06156,1.631458 0.06157,0.923467 0.09235,2.000845 0.03078,1.046595 0.06157,1.970062 0.06156,0.923466 0.09235,1.631458 0.03078,0.707991 0.03078,0.923466 0.215476,0.615645 -0.03078,0.83112 -0.215475,0.184694 -0.615644,0.123129 -0.400169,-0.06156 -0.800338,-0.338604 -0.400169,-0.27704 -0.523298,-0.615645 L 91.354995,23.124286 q -0.215476,4.648116 -0.430951,7.75712 -0.215476,3.109005 -0.400169,5.232978 -0.09235,0.338605 -0.307822,0.369387 -0.215476,0.03078 -0.461734,-0.06156 -0.215475,-0.123128 -0.430951,-0.338604 -0.215475,-0.215476 -0.369387,-0.369387 z" />
    <path
       id="path19"
       style="font-style:normal;font-variant:normal;font-weight:normal;font-stretch:normal;font-family:'Shadows Into Light';-inkscape-font-specification:'Shadows Into Light, ';fill:#f5ff00;fill-opacity:1;stroke:#000000;stroke-width:0.7880249;stroke-opacity:1"
       d="m 110.31684,35.714215 q -0.15391,-0.800338 -0.27704,-1.908498 -0.0923,-1.138942 -0.21547,-2.277884 -0.12313,-1.169724 -0.30783,-2.185538 -0.15391,-1.015813 -0.49251,-1.66224 -1.56989,3.201351 -2.7704,5.048285 -1.20051,1.816151 -2.12397,2.616489 -0.89269,0.769555 -1.50833,0.738773 -0.61565,-0.03078 -1.01582,-0.55408 -0.40017,-0.523298 -0.58486,-1.323636 -0.15391,-0.83112 -0.21547,-1.539111 0,-0.677209 0.30782,-1.908498 0.30782,-1.231288 0.83112,-2.678053 0.5233,-1.477547 1.23129,-2.985876 0.73877,-1.508328 1.56989,-2.739617 0.83112,-1.231289 1.7238,-2.031627 0.89269,-0.800338 1.78537,-0.800338 1.32364,-0.215475 1.93928,0.584862 0.64643,0.769556 0.24626,2.616489 0,2.031627 0.15391,3.478391 0.1847,1.446765 0.36939,2.7704 0.21547,1.323636 0.36939,2.770401 0.18469,1.446764 0.18469,3.478391 0,0.369386 -0.0923,0.646426 -0.0616,0.246258 -0.73877,0.246258 -0.0923,0 -0.24626,-0.153911 -0.12313,-0.153911 -0.12313,-0.246258 z M 108.6546,21.954562 q -0.3386,-0.492516 -0.92346,-0.09235 -0.58487,0.400169 -1.23129,1.323636 -0.64643,0.923466 -1.32364,2.21632 -0.67721,1.292853 -1.26207,2.616489 -0.58486,1.323635 -1.01581,2.524142 -0.43095,1.169724 -0.58487,1.93928 0,1.10816 0.33861,1.262071 0.3386,0.123129 0.83112,-0.369387 0.49251,-0.492515 1.10816,-1.415982 0.64643,-0.923467 1.23129,-1.970062 0.61564,-1.046596 1.13894,-2.031627 0.55408,-0.985031 0.8619,-1.600675 0.27704,-0.646427 0.43095,-1.200507 0.15391,-0.55408 0.24626,-1.046596 0.12313,-0.523297 0.12313,-1.046595 0.0308,-0.523298 0.0308,-1.10816 z" />
    <path
       id="path21"
       style="font-style:normal;font-variant:normal;font-weight:normal;font-stretch:normal;font-family:'Shadows Into Light';-inkscape-font-specification:'Shadows Into Light, ';fill:#f5ff00;fill-opacity:1;stroke:#000000;stroke-width:0.7880249;stroke-opacity:1"
       d="m 114.44166,36.114384 q -0.3386,-4.1556 -0.61564,-8.3112 -0.24626,-4.186382 -0.55408,-8.680587 0,-0.738773 0.80034,-0.738773 h 0.24625 q 0.0924,0 0.21548,0.246258 0.12313,0.246257 0.24626,0.923466 0.15391,0.646427 0.30782,2.000845 0.18469,1.323635 0.43095,3.478391 0.24626,2.154756 0.55408,5.386889 0.64643,-2.093191 1.01581,-4.063253 0.36939,-1.970063 0.95425,-3.570738 0.58487,-1.631458 1.63146,-2.862747 1.07738,-1.231289 3.07822,-1.816151 1.10816,0.184693 1.78537,1.354418 0.67721,1.138942 1.07738,2.831964 0.40017,1.693022 0.55408,3.693867 0.15391,1.970062 0.18469,3.786213 0.0308,1.816151 0.0308,3.262916 0,1.415982 0.0616,2.031627 -0.0923,0.246257 -0.27704,0.430951 -0.18469,0.184693 -0.43095,0.27704 -0.21548,0.06156 -0.43095,0.03078 -0.21548,-0.06156 -0.40017,-0.338605 0,-0.338604 -0.0616,-1.3852 -0.0616,-1.046595 -0.15392,-2.431795 -0.0923,-1.415982 -0.21547,-2.985876 -0.0923,-1.600675 -0.18469,-2.985875 -0.0616,-1.415983 -0.12313,-2.462578 -0.0616,-1.046596 -0.0924,-1.3852 -0.64643,-1.138942 -1.29285,-1.292854 -0.61565,-0.153911 -1.26208,0.400169 -0.61564,0.55408 -1.2005,1.693023 -0.58486,1.138942 -1.10816,2.585706 -0.5233,1.415983 -0.98503,2.985876 -0.46174,1.569893 -0.80034,3.04744 -0.33861,1.446764 -0.58486,2.647271 -0.21548,1.169725 -0.27704,1.816151 -0.0923,0.215476 -0.40017,0.430951 -0.27704,0.184694 -0.61565,0.27704 -0.30782,0.09235 -0.64642,0.06156 -0.30783,-0.06156 -0.46174,-0.369387 z" />
    <path
       id="path23"
       style="font-style:normal;font-variant:normal;font-weight:normal;font-stretch:normal;font-family:'Shadows Into Light';-inkscape-font-specification:'Shadows Into Light, ';fill:#f5ff00;fill-opacity:1;stroke:#000000;stroke-width:0.7880249;stroke-opacity:1"
       d="m 129.30948,12.873806 q 0.64642,-0.615644 1.01581,-0.492516 0.40017,0.123129 0.58486,0.83112 0.1847,0.707992 0.21548,1.846934 0.0308,1.138942 -0.0308,2.585707 -0.0308,1.415982 -0.15391,3.016657 -0.12313,1.569894 -0.21548,3.109005 -0.0924,1.508329 -0.12313,2.893529 -0.0308,1.3852 0.0924,2.401013 h 0.0923 q 0.0616,0 0.0923,-0.03078 1.60068,-1.600676 2.86275,-3.386045 1.26207,-1.785368 2.27788,-3.355262 1.01582,-1.600675 1.78537,-2.7704 0.80034,-1.169724 1.47755,-1.600675 0.46173,0 0.76955,0.153911 0.33861,0.153911 0.33861,0.707991 0,0.06156 -0.0308,0.215475 0,0.123129 0,0.184694 -0.76956,1.569893 -1.69303,3.170569 -0.92346,1.569893 -2.00084,3.04744 -1.07738,1.477546 -2.33945,2.801182 -1.23129,1.323636 -2.67805,2.401013 0,0.03078 -0.0308,0.123129 0,0.06156 0,0.09235 0,0.307822 0.49252,0.677209 0.5233,0.369386 1.29285,0.707991 0.80034,0.338604 1.75459,0.677209 0.98503,0.338604 1.9085,0.584862 0.95425,0.246258 1.75458,0.400169 0.83112,0.153911 1.29286,0.153911 0,0.123129 0,0.461733 0.0308,0.338605 -0.0308,0.707991 -0.0616,0.369387 -0.21548,0.677209 -0.15391,0.27704 -0.49252,0.27704 h -0.12312 q -0.0616,0 -0.0924,-0.03078 l -8.80372,-3.539955 q -0.0308,1.816151 -0.24625,2.955093 -0.21548,1.10816 -0.5233,1.631458 -0.27704,0.55408 -0.61565,0.523298 -0.30782,-0.03078 -0.55408,-0.492516 z" />
    <path
       id="path25"
       style="font-style:normal;font-variant:normal;font-weight:normal;font-stretch:normal;font-family:'Shadows Into Light';-inkscape-font-specification:'Shadows Into Light, ';fill:#f5ff00;fill-opacity:1;stroke:#000000;stroke-width:0.7880249;stroke-opacity:1"
       d="m 141.93018,32.297389 q -0.21547,-1.415983 -0.21547,-2.739618 0,-1.354418 0.15391,-2.739618 0.18469,-1.3852 0.49252,-2.862747 0.3386,-1.508329 0.76955,-3.232133 0,-0.338605 0.18469,-0.615645 0.1847,-0.307822 0.49252,-0.492515 0.30782,-0.215476 0.64643,-0.338605 0.3386,-0.123129 0.64642,-0.123129 0.67721,0 1.23129,0.430952 0.55408,0.430951 0.98503,1.046595 0.46174,0.615645 0.76956,1.323636 0.3386,0.677209 0.55408,1.169724 0.24626,1.077378 0.3386,2.462578 0.12313,1.354418 0.0308,2.7704 -0.0923,1.415982 -0.43096,2.801182 -0.3386,1.354418 -0.95424,2.49336 -0.61565,1.138943 -1.60068,1.908498 -0.95425,0.769556 -2.27788,0.954249 -0.708,0 -1.07738,-0.461733 -0.36939,-0.492516 -0.55408,-1.169725 -0.15391,-0.707991 -0.1847,-1.415982 0,-0.707991 0,-1.169724 z m 1.5699,-0.09235 q 0,0.307822 0,0.584862 0.0308,0.27704 0.0616,0.55408 0.0616,0.246258 0.12313,0.55408 0.0924,0.27704 0.21548,0.646427 h 0.18469 q 0.73877,0 1.26207,-0.492516 0.5233,-0.492515 0.89269,-1.262071 0.36938,-0.800338 0.61564,-1.754587 0.24626,-0.985031 0.36939,-1.908497 0.15391,-0.954249 0.18469,-1.754587 0.0616,-0.83112 0.0616,-1.323636 v -0.615644 q 0,-0.400169 -0.0308,-0.892685 -0.0308,-0.523297 -0.12313,-1.046595 -0.0616,-0.55408 -0.21547,-0.985031 -0.15391,-0.461734 -0.40017,-0.738774 -0.24626,-0.27704 -0.64643,-0.27704 -0.67721,-0.215475 -1.16972,0.09235 -0.46174,0.307822 -0.76956,1.046596 -0.27704,0.707991 -0.43095,1.754586 -0.15391,1.046596 -0.18469,2.308667 -0.0308,1.262071 -0.0308,2.678053 0.0308,1.415983 0.0308,2.831965 z" />
    <path
       id="path27"
       style="font-style:normal;font-variant:normal;font-weight:normal;font-stretch:normal;font-family:'Shadows Into Light';-inkscape-font-specification:'Shadows Into Light, ';fill:#f5ff00;fill-opacity:1;stroke:#000000;stroke-width:0.7880249;stroke-opacity:1"
       d="m 152.8271,36.05282 q 0,0.03078 0.64642,-0.369387 0.67721,-0.400169 1.5699,-1.046596 0.92346,-0.677208 1.87771,-1.446764 0.95425,-0.800338 1.5699,-1.508329 0.61564,-0.707991 0.64642,-1.200507 0.0616,-0.523297 -0.83112,-0.677208 -1.10816,-0.153912 -1.87771,0.03078 -0.73878,0.184693 -1.35442,0.430951 -0.61565,0.246258 -1.16973,0.461733 -0.52329,0.215476 -1.16972,0.153911 -1.35442,0 -1.87772,-0.83112 -0.49251,-0.861902 -0.49251,-2.308666 0,-1.446765 0.64643,-2.739618 0.64642,-1.323636 1.66224,-2.277885 1.01581,-0.954249 2.33944,-1.508329 1.32364,-0.584862 2.70884,-0.584862 0.55408,0 0.95425,0.09235 0.40017,0.09235 0.40017,0.707991 0,0.430951 -0.36939,0.83112 -0.36939,0.369387 -0.83112,0.369387 -0.0308,0 -0.15391,-0.03078 -0.12313,-0.06156 -0.24626,-0.153911 -0.12313,-0.09235 -0.24626,-0.123129 -0.12312,-0.06156 -0.15391,-0.06156 -0.98503,-0.27704 -1.90849,0.27704 -0.92347,0.55408 -1.66224,1.508329 -0.708,0.923467 -1.13895,2.031627 -0.43095,1.077377 -0.43095,1.93928 0,0.338604 0.12313,0.55408 0.15391,0.184693 0.36939,0.27704 0.24626,0.09235 0.5233,0.123128 0.30782,0 0.61564,0 0.61564,0 1.23129,-0.184693 0.64643,-0.184693 1.23129,-0.430951 0.61564,-0.246258 1.23129,-0.430951 0.64642,-0.184693 1.32363,-0.184693 0.30782,0 0.67721,0.184693 0.36939,0.153911 0.67721,0.492515 0.30782,0.307823 0.5233,0.738774 0.21547,0.400169 0.24626,0.892684 0.18469,0.430951 -0.12313,1.138943 -0.27704,0.707991 -0.86191,1.508328 -0.58486,0.800338 -1.41598,1.631458 -0.83112,0.800338 -1.66224,1.477547 -0.83112,0.646427 -1.63146,1.046596 -0.80033,0.430951 -1.35441,0.400168 -0.61565,0 -0.73878,-0.369386 -0.0923,-0.369387 -0.0923,-0.83112 z" />
  </g>
</svg>
